PathFileType	4	(X/Y/Z)	./resultDataOpenSim/trcMotMarkerGrf/sub10/qtm-05-08.trc
DataRate	CameraRate	NumFrames	NumMarkers	Units	OrigDataRate	OrigDataStartFrame	OrigNumFrames
250.000000	250.000000	12	24	m	250.000000	397	529
Frame#	Time	L.Toe.Tip			R.Toe.Tip			L.Ankle.Lat			R.Ankle.Lat			L.Ankle.Med			R.Ankle.Med			L.Heel			R.Heel			L.Knee.Lat			R.Knee.Lat			L.Knee.Med			R.Knee.Med			L.Thigh.Upper			R.Thigh.Upper			L.ASIS			R.ASIS			V.Sacral			L.Acromium			R.Acromium			C7			L.Elbow			R.Elbow			L.Wrist.Lat			R.Wrist.Lat
		X1	Y1	Z1	X2	Y2	Z2	X3	Y3	Z3	X4	Y4	Z4	X5	Y5	Z5	X6	Y6	Z6	X7	Y7	Z7	X8	Y8	Z8	X9	Y9	Z9	X10	Y10	Z10	X11	Y11	Z11	X12	Y12	Z12	X13	Y13	Z13	X14	Y14	Z14	X15	Y15	Z15	X16	Y16	Z16	X17	Y17	Z17	X18	Y18	Z18	X19	Y19	Z19	X20	Y20	Z20	X21	Y21	Z21	X22	Y22	Z22	X23	Y23	Z23	X24	Y24	Z24

397	1.584	0.58759015	0.089500816	-0.11974817	0.91193747	0.038560378	0.027767895	0.57819273	0.2275717	-0.14845891	0.76991027	0.055481505	0.06649769	0.59899469	0.22849885	-0.067298836	0.79403712	0.082866598	-0.01634076	0.52781545	0.27128078	-0.10094851	0.71822111	0.035621023	0.019399189	0.88389474	0.44013797	-0.17155899	0.88292971	0.43871777	0.10322323	0.90088462	0.40854259	-0.050917488	0.89139117	0.44883993	-0.024346018	0.78297545	0.80314891	-0.201265	0.81340625	0.84860123	0.1742101	0.85037908	0.91320946	-0.14406749	0.87712672	0.93191115	0.09377834	0.66418475	0.95214273	-0.0096178861	0.86661741	1.3997355	-0.18186527	0.83556571	1.4002901	0.14053116	0.76219654	1.4279637	-0.031097146	0.79020072	1.0613482	-0.2581729	0.70364303	1.0697932	0.21457336	0.9592082	0.88671679	-0.20348306	0.8788345	0.93551237	0.32964457
398	1.588	0.60413513	0.089469422	-0.12052435	0.9119121	0.03857924	0.027873571	0.59167468	0.2271233	-0.14850538	0.77002173	0.055670085	0.066547686	0.61229757	0.22825417	-0.067322188	0.79426279	0.083221412	-0.016164796	0.54021301	0.26967477	-0.10084774	0.71822277	0.035909792	0.019341078	0.89452648	0.44369263	-0.17141941	0.88324463	0.4390623	0.10390385	0.91164403	0.41216985	-0.050513614	0.89191845	0.4491029	-0.02322148	0.79015903	0.80551494	-0.20168364	0.81781032	0.85004704	0.17398046	0.85642323	0.91548058	-0.14380364	0.88169628	0.93371124	0.094002791	0.66957648	0.95389875	-0.010832616	0.87056416	1.4019058	-0.18194533	0.84035015	1.4022771	0.14056857	0.76672371	1.4298569	-0.030848227	0.79167856	1.0640415	-0.25773688	0.71057332	1.0710898	0.21582054	0.95927325	0.88740336	-0.20591252	0.88861652	0.93917631	0.32924003
399	1.592	0.62087596	0.089283623	-0.12136116	0.91188899	0.038591965	0.027979062	0.60521676	0.22645779	-0.1484911	0.77021244	0.055857716	0.06657622	0.6256402	0.22777544	-0.067273714	0.79445818	0.083586136	-0.015959808	0.55275425	0.2678269	-0.10069804	0.71824696	0.036178939	0.019236109	0.90508215	0.44726631	-0.17128763	0.88354785	0.43941537	0.1045712	0.92237534	0.41577349	-0.050148479	0.89331549	0.44936063	-0.022047189	0.79731092	0.80784236	-0.2020811	0.82227243	0.85150924	0.17375914	0.86222302	0.91763241	-0.14375073	0.88625673	0.93542186	0.094192753	0.67495986	0.95561486	-0.012027419	0.87449906	1.4040205	-0.18203326	0.84510298	1.4042292	0.14060132	0.77123691	1.4316837	-0.030601753	0.79317688	1.0666819	-0.25728796	0.71750733	1.0723299	0.21703979	0.95943017	0.88807464	-0.20834772	0.89834737	0.94279351	0.32886933
400	1.596	0.63775946	0.088952108	-0.12223622	0.91186756	0.038600955	0.028084759	0.61882627	0.22558946	-0.14844459	0.77035668	0.056056714	0.066615801	0.63909192	0.22702298	-0.067221594	0.79459344	0.083959252	-0.015701615	0.56543495	0.26574709	-0.10048874	0.71828775	0.036441658	0.019088379	0.91555597	0.45083844	-0.17113748	0.88384957	0.43977937	0.10521437	0.93318511	0.419405	-0.049878245	0.89467636	0.4495384	-0.021096551	0.80444278	0.81013252	-0.20265686	0.82658528	0.85289681	0.17355731	0.86816917	0.91974106	-0.1436464	0.89080363	0.93703965	0.094347119	0.68044439	0.95725176	-0.013208773	0.87841648	1.4060782	-0.18212699	0.84982677	1.40614	0.14062875	0.77573559	1.4334423	-0.030370185	0.79469585	1.0692665	-0.25681024	0.72437865	1.0735199	0.21838141	0.95969225	0.88872684	-0.21080412	0.9080139	0.94636929	0.32853577
401	1.6	0.65469058	0.088484619	-0.12310121	0.91184869	0.038610316	0.028188199	0.6325072	0.22452232	-0.1483925	0.77037527	0.056276897	0.066684984	0.65279903	0.22597728	-0.067212042	0.79470639	0.084341253	-0.015424508	0.57824726	0.26343494	-0.10022305	0.71830712	0.036720152	0.018944659	0.92594565	0.45438022	-0.17096403	0.88415451	0.44014728	0.10582123	0.94412963	0.42305184	-0.049729702	0.89551372	0.44964007	-0.020477815	0.81154957	0.8123816	-0.20355947	0.83049083	0.85407009	0.17338404	0.87437614	0.92182421	-0.14339264	0.89533499	0.93855831	0.094463673	0.68602786	0.95884241	-0.014439103	0.88231626	1.4080708	-0.18221909	0.85452247	1.4079987	0.14064675	0.78022506	1.4351319	-0.030156604	0.79624514	1.071788	-0.25629518	0.73116682	1.0746535	0.21992256	0.96003756	0.88934133	-0.21329338	0.91762116	0.94991079	0.32823762
402	1.604	0.67158578	0.087895763	-0.12390272	0.91183402	0.03862496	0.028286255	0.64624602	0.22325939	-0.14834047	0.77026741	0.05652257	0.066774239	0.66688107	0.22466238	-0.067249693	0.79486196	0.084735209	-0.015188999	0.59117304	0.26088441	-0.099908143	0.71826736	0.037036583	0.018836274	0.93625306	0.45787484	-0.17078167	0.88445825	0.44051127	0.10638779	0.95530483	0.42665786	-0.049779603	0.89601919	0.44972381	-0.020101109	0.81858447	0.81458745	-0.20464721	0.83402229	0.85502356	0.1732281	0.88058145	0.92383336	-0.14310823	0.89985332	0.9399755	0.094546116	0.69161322	0.96043597	-0.015784818	0.88620086	1.4099918	-0.18230956	0.85919205	1.4097984	0.14065648	0.78471225	1.4367482	-0.029951264	0.7978339	1.0742417	-0.25574626	0.73796277	1.0756964	0.22154211	0.96041806	0.88990965	-0.21580767	0.92720573	0.95341762	0.32796684
403	1.608	0.68843863	0.087198814	-0.12461783	0.9118229	0.038647323	0.028378417	0.66002838	0.22180445	-0.14828286	0.77005831	0.056797302	0.066864474	0.68147406	0.2231201	-0.067305284	0.79507423	0.085148763	-0.015013373	0.60418954	0.25809263	-0.099559938	0.7181698	0.037397791	0.01874375	0.94646336	0.46130912	-0.17059586	0.88474029	0.44087575	0.10692723	0.96675264	0.43016839	-0.050079779	0.89647388	0.44982729	-0.019827003	0.82550077	0.81675413	-0.20562655	0.83752234	0.85592439	0.17306214	0.88651975	0.92572345	-0.14293383	0.90436208	0.94129491	0.094602965	0.69712312	0.96201339	-0.017182993	0.89007891	1.4118354	-0.18240138	0.86383882	1.4115393	0.14066416	0.7891998	1.4382879	-0.02974681	0.79946381	1.0766254	-0.25517541	0.74488765	1.0765875	0.2230087	0.96078941	0.89044881	-0.21833169	0.93681359	0.95687609	0.32770953
404	1.612	0.70531729	0.086398758	-0.12526817	0.91181348	0.038674894	0.02846504	0.67385823	0.2201602	-0.14822016	0.76980408	0.057097032	0.066933501	0.69678137	0.22136864	-0.067369986	0.79530564	0.085585708	-0.014873789	0.61729281	0.255061	-0.099210429	0.71808335	0.037797694	0.018620837	0.95654652	0.46466119	-0.17040061	0.88496302	0.44125363	0.10747135	0.97827437	0.433567	-0.050474575	0.8970593	0.44993766	-0.019519246	0.83235474	0.81888038	-0.20628934	0.84121438	0.85689771	0.17286741	0.89228689	0.92750558	-0.14287315	0.90886238	0.94252205	0.094643569	0.70257807	0.96350753	-0.018303585	0.89395785	1.4135961	-0.18249525	0.868465	1.4132235	0.14067132	0.79368513	1.4397495	-0.029548437	0.80113269	1.078939	-0.25459784	0.75192554	1.077297	0.22417467	0.9611404	0.89097149	-0.22086087	0.94646256	0.96027049	0.32745313
405	1.616	0.72228851	0.085498544	-0.12588458	0.91180606	0.0387009	0.028544892	0.68775066	0.21832933	-0.14816086	0.76958863	0.057408691	0.06695625	0.71264497	0.21944708	-0.067449869	0.79553763	0.086030379	-0.01475704	0.63050343	0.25179105	-0.098894582	0.71811239	0.038229714	0.018425956	0.96648237	0.46790296	-0.17019501	0.88510119	0.44164718	0.10804494	0.98981125	0.43691846	-0.050593294	0.89788795	0.4500453	-0.019077244	0.83930943	0.82094466	-0.20650328	0.8449974	0.85790475	0.1726449	0.89819733	0.92923126	-0.1428444	0.91335311	0.94366118	0.09467646	0.70810808	0.96485387	-0.018525689	0.89783237	1.4152741	-0.18259032	0.87307139	1.4148522	0.14067237	0.79816307	1.4411298	-0.029365261	0.80283895	1.0811834	-0.2540253	0.7589435	1.0778938	0.22502313	0.96148106	0.89147664	-0.22339823	0.95613144	0.96359852	0.32719399
406	1.62	0.73936828	0.084509492	-0.12647043	0.91180143	0.038716554	0.028616332	0.70171067	0.21632004	-0.1481066	0.76946192	0.057718734	0.066917916	0.72840546	0.21744163	-0.067527952	0.7958096	0.086451422	-0.014683571	0.6438192	0.2482902	-0.098618517	0.71830095	0.038679565	0.018141205	0.97627394	0.47101338	-0.16998764	0.88519552	0.44203995	0.10862747	1.002162	0.44039575	-0.050042598	0.89896275	0.45017707	-0.018488873	0.84642225	0.82291873	-0.20630228	0.84869573	0.85885656	0.17240199	0.90438227	0.93093077	-0.1427933	0.91783278	0.94471441	0.094707519	0.71386447	0.96603222	-0.017339027	0.90169697	1.4168699	-0.18268214	0.87765893	1.4164223	0.14066288	0.80262929	1.4424259	-0.029199216	0.8045796	1.083358	-0.25346075	0.76587542	1.0785065	0.22563068	0.96181895	0.89196173	-0.22594073	0.96578583	0.96686828	0.32693591
407	1.624	0.75654706	0.08345536	-0.12700848	0.91179772	0.038716068	0.028680105	0.71573844	0.21414687	-0.14805018	0.76941615	0.058017931	0.066822964	0.74358127	0.2154107	-0.067585149	0.7961615	0.086832733	-0.014674611	0.65719511	0.24457583	-0.098355112	0.71859737	0.03912521	0.017775966	0.98594337	0.4739833	-0.16978731	0.88535093	0.44241535	0.10915969	1.0163938	0.44416647	-0.048678907	0.9002033	0.45033987	-0.017828749	0.85351784	0.82480708	-0.20606276	0.85225126	0.85971273	0.17213866	0.91071959	0.9325866	-0.14270823	0.92229817	0.94568059	0.094738641	0.719811	0.96711594	-0.015176186	0.90556092	1.4183733	-0.18276675	0.88222835	1.4179244	0.14064344	0.80708519	1.4436356	-0.029046236	0.80634472	1.0854571	-0.25290077	0.7728109	1.0791904	0.22616182	0.96216352	0.89242879	-0.22848488	0.97541037	0.97008509	0.32668091
408	1.628	0.77385245	0.082366913	-0.12750045	0.91179463	0.03870374	0.028738774	0.72984467	0.21182168	-0.14798847	0.76941824	0.058303809	0.066687191	0.7582106	0.21334997	-0.067614672	0.79655741	0.087192723	-0.014719954	0.67061516	0.24065953	-0.098088021	0.71890786	0.039557118	0.017357454	0.99551863	0.47680534	-0.16959465	0.88565359	0.44277322	0.10959547	1.0319381	0.44812964	-0.046895267	0.9014866	0.45050143	-0.017218655	0.86042829	0.82665295	-0.20622158	0.85567216	0.86047187	0.17185179	0.91705684	0.93416695	-0.1425938	0.92674359	0.94655685	0.094769614	0.7256776	0.96822626	-0.013446076	0.90943989	1.4197721	-0.18284744	0.88677999	1.4193508	0.14061674	0.81153964	1.4447556	-0.028903242	0.80812101	1.0874723	-0.25234369	0.77990258	1.0798914	0.22679789	0.96253708	0.89288332	-0.23103848	0.98501307	0.97324838	0.3264219
